<?xml version="1.0" encoding="UTF-8" standalone="no"?>
<svg
   version="1.1"
   width="556.46967pt"
   height="80.511047pt"
   id="svg245"
   viewBox="0 0 556.46966 80.511047"
   sodipodi:docname="Logotipo Unemat.svg"
   inkscape:version="1.2 (1:1.2+202206011327+fc4e4096c5)"
   xmlns:inkscape="http://www.inkscape.org/namespaces/inkscape"
   xmlns:sodipodi="http://sodipodi.sourceforge.net/DTD/sodipodi-0.dtd"
   xmlns="http://www.w3.org/2000/svg"
   xmlns:svg="http://www.w3.org/2000/svg">
  <defs
     id="defs249" />
  <sodipodi:namedview
     id="namedview247"
     pagecolor="#505050"
     bordercolor="#ffffff"
     borderopacity="1"
     inkscape:showpageshadow="0"
     inkscape:pageopacity="0"
     inkscape:pagecheckerboard="1"
     inkscape:deskcolor="#505050"
     showgrid="false"
     inkscape:zoom="0.51936728"
     inkscape:cx="395.67375"
     inkscape:cy="562.22256"
     inkscape:window-width="1366"
     inkscape:window-height="715"
     inkscape:window-x="0"
     inkscape:window-y="340"
     inkscape:window-maximized="1"
     inkscape:current-layer="svg245"
     showguides="true"
     inkscape:document-units="pt">
    <sodipodi:guide
       position="303.64648,80.485366"
       orientation="0,-1"
       id="guide690"
       inkscape:locked="false" />
    <sodipodi:guide
       position="354.08015,0.51725652"
       orientation="0,-1"
       id="guide692"
       inkscape:locked="false" />
  </sodipodi:namedview>
  <path
     d="m 27.363064,80.511086 c -5.9091,0 -10.7429,-0.802 -14.5012,-2.4077 -3.7625001,-1.6016 -6.6436001,-3.9188 -8.6376001,-6.9444 -1.9982,-3.0279 -3.26360001,-6.6922 -3.79620001,-10.9956 -0.5363,-4.3028 -0.57,-9.149 -0.0936,-14.5486 L 4.2473639,0.87588553 c 2.1401,-0.29 3.9814,-0.4924 5.5226,-0.6031 1.5406001,-0.1089 3.0025001,-0.1627 4.3887001,-0.1627 1.2399,0 2.6036,0.0538 4.088,0.1627 1.4867,0.1107 3.2718,0.3131 5.3623,0.6031 l -3.7146,42.44010047 c -0.3172,3.6518 -0.4427,6.7461 -0.374,9.3018 0.0669,2.5515 0.4155,4.6313 1.0422,6.2329 0.6221,1.6051 1.5993,2.7557 2.9233,3.447 1.3257,0.693 3.1173,1.0375 5.3806,1.0375 2.2591,0 4.13,-0.3445 5.612,-1.0375 1.485,-0.6913 2.6788,-1.8419 3.5855,-3.447 0.9038,-1.6016 1.5992,-3.6814 2.0751,-6.2329 0.4782,-2.5557 0.8789,-5.65 1.1985,-9.3018 l 3.7122,-42.44010047 c 2.2112,-0.29 4.0738,-0.4924 5.5771,-0.6031 1.5057,-0.1089 2.8729,-0.1627 4.1176,-0.1627 1.311,0 2.7291,0.0538 4.249,0.1627 1.5222,0.1107 3.328,0.3131 5.4185,0.6031 l -3.9152,44.73890047 c -0.4717,5.3996 -1.353,10.2458 -2.6391,14.5486 -1.2885,4.3034 -3.1967,7.9677 -5.721,10.9956 -2.5266,3.0256 -5.8109,5.3428 -9.8509,6.9444 -4.0407,1.6057 -9.0182,2.4077 -14.9227,2.4077 z"
     style="fill:#ffffff;fill-rule:evenodd"
     id="path122"
     inkscape:export-filename="unematica.svg"
     inkscape:export-xdpi="34.885605"
     inkscape:export-ydpi="34.885605" />
  <path
     d="m 71.633868,0.87468553 c 1.627,-0.29 3.1073,-0.5095 4.4307,-0.6575 1.3263,-0.1444 2.6083,-0.217200002567 3.8465,-0.217200002567 1.3151,0 2.6722,0.08990000257 4.0815,0.273400002567 1.4056,0.1817 2.6059,0.3824 3.608,0.6013 L 109.23017,43.755186 112.98197,0.87468553 c 1.9212,-0.29 3.6518,-0.5095 5.2013,-0.6575 1.543,-0.1444 2.9291,-0.217200002567 4.1738,-0.217200002567 1.2358,0 2.545,0.07280000257 3.9187,0.217200002567 1.372,0.148 2.8126,0.3675 4.3159,0.6575 l -6.9426,78.10640047 c -0.7493,0.2172 -1.8247,0.4344 -3.2297,0.6534 -1.4051,0.2214 -2.9085,0.3303 -4.51,0.3303 -1.8248,0 -3.4577,-0.1296 -4.8924,-0.3841 -1.4382,-0.2551 -2.4763,-0.4534 -3.1215,-0.5996 l -21.752102,-42.6632 -3.7311,42.6632 c -3.2677,0.6534 -6.214,0.9837 -8.8365,0.9837 -2.6285,0 -5.554104,-0.3303 -8.782104,-0.9837 z"
     style="fill:#ffffff;fill-rule:evenodd"
     id="path124" />
  <path
     d="m 176.43617,38.285786 c -0.2237,2.5533 -0.802,5.3972 -1.7312,8.5311 h -21.1111 l -1.3613,15.5346 h 27.4565 c 0.3906,3.0629 0.4758,5.8358 0.2586,8.3145 -0.2355,2.6995 -0.8162,5.5789 -1.743,8.6418 h -46.8187 l 6.8839,-78.65140047 h 46.163 c 0.1503,1.60329997 0.2361,3.10069997 0.2633,4.48509997 0.0249,1.3861 -0.0171,2.6977 -0.1254,3.9377 -0.2131,2.4094005 -0.7558,5.2871005 -1.633,8.6400005 h -26.8007 l -1.0523,12.0349 h 21.1111 c 0.3776,3.2091 0.4575,6.053 0.2403,8.5317 z"
     style="fill:#ffffff;fill-rule:evenodd"
     id="path126" />
  <path
     d="m 192.06907,0.89898553 c 1.5512,-0.2166 3.2262,-0.4196 5.0302,-0.6013 1.8016,-0.1794 3.4701,-0.2735 5.0024,-0.2735 1.4578,0 3.0339,0.0941 4.7355,0.2735 1.6933,0.1817 3.2636,0.3847 4.7042,0.6013 l 11.9727,40.69470047 19.641,-40.69470047 c 1.4761,-0.2166 2.9735,-0.4196 4.4828,-0.6013 1.5098,-0.1794 2.9942,-0.2735 4.4561,-0.2735 1.5323,0 3.0919,0.0941 4.6745,0.2735 1.5916,0.1817 3.1405,0.3847 4.6545,0.6013 l -3.1132,78.10870047 c -1.1879,0.2172 -2.4995,0.4345 -3.9424,0.6534 -1.4424,0.2214 -3.3299,0.3279 -5.6624,0.3279 -2.5515,0 -5.5499,-0.3279 -8.9928,-0.9813 l 2.4326,-45.2899 -14.6492,29.8642 c -1.3299,0.219 -2.6598,0.3989 -3.9862,0.5469 -1.3234,0.1462 -2.5343,0.2172 -3.6287,0.2172 -1.0938,0 -2.2171,-0.0521 -3.3742,-0.1651 -1.1589,-0.1083 -2.3467,-0.3066 -3.5577,-0.599 l -8.1452,-29.4298 -5.1303,44.8555 c -3.1191,0.6534 -6.0672,0.9813 -8.8359,0.9813 -2.5515,0 -5.4747,-0.3279 -8.7755,-0.9813 z"
     style="fill:#ffffff;fill-rule:evenodd"
     id="path128" />
  <path
     d="m 349.54067,17.745786 h -18.2673 c -0.3823,-3.1345 -0.4616,-6.0175 -0.232,-8.6400005 0.2131,-2.4095 0.7872,-5.2137 1.7229,-8.42279997 h 55.9026 c 0.1504,1.60329997 0.2362,3.09839997 0.261,4.48279997 0.0231,1.3885 -0.0183,2.6977 -0.1272,3.94 -0.2089,2.4053005 -0.7535,5.2865005 -1.6306,8.6400005 h -18.2678 l -5.3576,61.2607 c -3.9234,0.6535 -7.1615,0.9831 -9.713,0.9831 -2.6977,0 -5.9175,-0.3296 -9.6486,-0.9831 z"
     style="fill:#ffffff;fill-rule:evenodd"
     id="path130" />
  <path
     d="m 314.12457,0.78988553 c -2.0936,-0.2196 -3.9585,-0.3987 -5.5873,-0.5466 -1.6306,-0.1442 -3.1317,-0.2177 -4.5179,-0.2177 -1.6812,0 -3.343,0.0735 -4.9985,0.2177 -1.6535,0.1479 -3.4367,0.327 -5.3475,0.5466 l -30.482,75.95840047 18.4761,-2.6503 7.5605,-18.8546 c 4.6356,-3.9998 10.628,-9.5577 14.0335,-9.6036 1.2907,-0.0175 2.8937,1.9292 4.6585,3.9897 l 6.3387,24.4685 16.6535,2.4519 z m -10.7501,14.79320047 1.7307,11.6743 7.7342,0.937 -6.2937,7.5689 2.1653,8.7612 -5.8317,-5.0048 -12.807,9.9931 6.0696,-15.6374 -7.8178,-8.809 11.9058,1.3054 z"
     style="fill:#ffffff;fill-rule:evenodd"
     id="path132" />
  <path
     d="m 478.23162,64.053526 q 1.22979,3.01301 1.85663,6.24124 0.75353,3.12062 0.91431,6.34885 -6.25272,2.04454 -11.2079,2.69019 -4.83862,0.64565 -10.43183,0.64565 -9.90474,0 -17.08751,-2.90541 -7.17263,-3.01302 -11.80103,-8.28579 -4.50165,-5.38038 -6.37295,-12.6977 -1.87153,-7.31732 -1.05707,-15.92593 0.81425,-8.60861 4.18667,-15.92592 3.38236,-7.42494 8.90192,-12.80532 5.63609,-5.3803805 13.26228,-8.3933905 7.74266,-3.01300997 17.1813,-3.01300997 5.59318,0 10.19317,0.64564 4.71649,0.64564997 9.99976,2.69018997 -0.53839,3.22823 -1.99887,6.34885 -1.45027,3.0130105 -3.14382,6.1336305 -3.9562,-1.29128 -7.05154,-1.82932 -3.09536,-0.53804 -7.40673,-0.53804 -11.18642,0 -17.8871,6.77928 -6.57399,6.67167 -7.82605,19.90741 -2.48375,26.25627 21.63707,26.25627 4.31156,0 7.62511,-0.53804 3.31368,-0.53804 7.51418,-1.82933 z"
     style="font-weight:bold;font-size:107.689px;line-height:500;font-family:Aller;-inkscape-font-specification:'Aller Bold';fill:#ffffff;stroke-width:0.83983"
     id="path770" />
  <path
     d="m 519.5057,1.3182755 q 2.41684,-0.32282997 4.58647,-0.43042997 2.17957,-0.21522 4.79395,-0.21522 2.27337,0 4.41322,0.21522 2.14978,0.1076 4.73435,0.43042997 l 18.43599,77.3698805 q -4.71999,0.64565 -9.15306,0.64565 -4.31941,0 -8.35191,-0.64565 l -3.11686,-15.49549 h -27.05313 l -6.09028,15.49549 q -4.15165,0.64565 -7.90272,0.64565 -4.20574,0 -8.23822,-0.64565 z m 13.6789,48.8538705 -6.43571,-32.49751 -12.88795,32.49751 z"
     style="font-weight:bold;font-size:107.689px;line-height:500;font-family:Aller;-inkscape-font-specification:'Aller Bold';fill:#ffffff;stroke-width:0.829471"
     id="path767" />
  <path
     d="m 396.26959,0.90952553 c 1.4761,-0.2166 2.9735,-0.4196 4.4828,-0.6013 1.5098,-0.1794 2.9942,-0.2735 4.4561,-0.2735 1.5323,0 3.0919,0.0941 4.6745,0.2735 1.5916,0.1817 3.1405,0.3847 4.6545,0.6013 l -3.1132,78.10870047 c -1.1879,0.2172 -2.4995,0.4345 -3.9424,0.6534 -1.4424,0.2214 -3.3299,0.3279 -5.6624,0.3279 -2.5515,0 -5.5499,-0.3279 -8.9928,-0.9813 0,0 4.14385,-77.8046405 3.4429,-78.10870047 z"
     style="fill:#ffffff;fill-rule:evenodd"
     id="path639"
     sodipodi:nodetypes="ccsccccscc" />
</svg>
